<?xml version="1.0" encoding="UTF-8" standalone="no"?>
<!-- Created with Inkscape (http://www.inkscape.org/) -->

<svg
   xmlns:dc="http://purl.org/dc/elements/1.1/"
   xmlns:cc="http://creativecommons.org/ns#"
   xmlns:rdf="http://www.w3.org/1999/02/22-rdf-syntax-ns#"
   xmlns:svg="http://www.w3.org/2000/svg"
   xmlns="http://www.w3.org/2000/svg"
   xmlns:sodipodi="http://sodipodi.sourceforge.net/DTD/sodipodi-0.dtd"
   xmlns:inkscape="http://www.inkscape.org/namespaces/inkscape"
   id="svg2"
   sodipodi:version="0.32"
   inkscape:version="0.92.3 (2405546, 2018-03-11)"
   width="299"
   height="197"
   version="1.0"
   sodipodi:docname="typing_monkey.svg"
   inkscape:output_extension="org.inkscape.output.svg.inkscape">
  <metadata
     id="metadata7">
    <rdf:RDF>
      <cc:Work
         rdf:about="">
        <dc:format>image/svg+xml</dc:format>
        <dc:type
           rdf:resource="http://purl.org/dc/dcmitype/StillImage" />
        <dc:title></dc:title>
      </cc:Work>
    </rdf:RDF>
  </metadata>
  <defs
     id="defs5">
    <inkscape:perspective
       sodipodi:type="inkscape:persp3d"
       inkscape:vp_x="0 : 526.18109 : 1"
       inkscape:vp_y="0 : 1000 : 0"
       inkscape:vp_z="744.09448 : 526.18109 : 1"
       inkscape:persp3d-origin="372.04724 : 350.78739 : 1"
       id="perspective9" />
  </defs>
  <sodipodi:namedview
     inkscape:window-height="705"
     inkscape:window-width="1366"
     inkscape:pageshadow="2"
     inkscape:pageopacity="0.0"
     guidetolerance="10.0"
     gridtolerance="10.0"
     objecttolerance="10.0"
     borderopacity="1.0"
     bordercolor="#666666"
     pagecolor="#ffffff"
     id="base"
     showgrid="false"
     inkscape:zoom="1.819398"
     inkscape:cx="149.5"
     inkscape:cy="90.321269"
     inkscape:window-x="0"
     inkscape:window-y="30"
     inkscape:current-layer="svg2"
     inkscape:window-maximized="1" />
  <path
     style="fill:#000000"
     d="m 263.96755,190.0494 c 11.09308,-0.30217 20.51505,-0.89637 20.93771,-1.32045 2.54672,-2.55526 -0.0422,-33.93836 -2.98867,-36.22895 -2.60246,-2.02316 -2.67333,-8.40429 -0.16197,-14.58477 2.30501,-5.67267 2.3173,-5.85231 0.44099,-6.44782 -1.80895,-0.57414 -1.69837,-1.05353 1.76216,-7.63893 2.03073,-3.86449 5.0075,-8.3416 6.61504,-9.94914 3.0932,-3.09321 3.08343,-5.87934 -0.0206,-5.87934 -5.04416,0 -8.61254,5.29025 -15.26654,22.63316 -2.66357,6.94229 -5.2287,13.00819 -5.7003,13.47979 -0.47159,0.47159 -6.9166,1.11003 -14.32225,1.41875 -19.22677,0.80151 -21.9648,1.22217 -21.9648,3.37459 0,3.02983 -3.4966,5.18626 -9.39681,5.79522 -3.77433,0.38954 -5.60319,1.02223 -5.60319,1.93839 0,0.83946 -1.12936,1.3601 -2.95031,1.3601 -1.62267,0 -3.31017,0.63171 -3.75,1.40379 -0.43983,0.77209 -1.92469,1.55959 -3.29969,1.75 -1.71298,0.23722 -2.60239,1.06823 -2.82525,2.63971 -0.22968,1.61958 -0.81736,2.14051 -2,1.77283 -2.10231,-0.6536 -4.64666,0.86108 -3.78591,2.25381 0.37575,0.60798 -0.51014,1.17653 -2.12189,1.3618 -3.32703,0.38244 -4.54764,4.34736 -1.57542,5.11747 0.99466,0.25773 -0.0559,0.52079 -2.33454,0.58459 -4.93626,0.13821 -5.35699,0.89986 -5.35699,9.69779 V 191 l 27.75,-0.2006 c 15.2625,-0.11033 36.82616,-0.44783 47.91925,-0.75 z m -67.66925,-2.21031 c 3.44487,-1.425 48.03271,-2.31482 61.5,-1.22734 l 11,0.88825 -15,0.5408 c -28.48817,1.02709 -60.20164,0.91584 -57.5,-0.20171 z m 79.76199,-1.8041 c -1.62801,-1.90138 -3.02596,-1.95805 -43.17108,-1.75 -38.7763,0.20095 -41.5185,0.1006 -41.94613,-1.53499 -0.25165,-0.9625 -0.21754,-2.66778 0.0758,-3.7895 0.44201,-1.69025 1.24824,-2.0025 4.70797,-1.82341 3.76524,0.1949 5.51596,-0.6902 17.85231,-9.02545 7.52273,-5.08285 15.59951,-11.43021 17.94841,-14.10525 l 4.27073,-4.86371 11.9201,-1.10124 c 7.16809,-0.66222 12.28318,-0.73816 12.83086,-0.19048 1.33531,1.33531 -7.7118,3.11076 -14.57868,2.861 -4.7631,-0.17324 -6.08708,0.14201 -7.24742,1.72563 -1.20608,1.64606 -1.21365,2.24791 -0.0503,4 1.7079,2.57223 5.24949,2.80123 4.8316,0.31241 -0.246,-1.46512 0.49026,-1.75 4.52273,-1.75 h 4.81657 v 3.92013 c 0,6.87316 5.00074,10.08697 12.53761,8.0575 4.75421,-1.28017 8.30536,-6.0481 7.37572,-9.90295 C 272.0886,154.30273 275.05333,148 277.02571,148 c 0.75588,0 1.27259,1.25609 1.27259,3.09362 0,2.13281 0.5565,3.23915 1.79183,3.56219 1.51845,0.39709 1.97626,2.40432 3.0007,13.15638 1.66264,17.45025 1.6282,18.08315 -1.04253,19.15665 -3.34927,1.34624 -4.14152,1.22269 -5.98801,-0.93385 z m -75.4179,-13.52202 c 0.87248,-1.87722 1.24134,-2.0905 1.5043,-0.86983 0.26828,1.2453 -1.20727,3.21416 -2.5043,3.34155 -0.0858,0.008 0.36424,-1.10385 1,-2.47172 z m 4.90591,-2.59307 c 0.9625,-0.5606 1.75,-1.76192 1.75,-2.66959 0,-1.2807 0.26792,-1.38239 1.19625,-0.45406 0.92834,0.92834 0.76037,1.52592 -0.75,2.6682 -1.07043,0.80957 -2.39625,1.47257 -2.94625,1.47334 -0.55,7.7e-4 -0.2125,-0.45728 0.75,-1.01789 z m 7.17857,-5.49133 c 0.91667,-0.91667 1.94989,-1.38344 2.29605,-1.03729 0.34616,0.34616 -0.23706,1.26294 -1.29605,2.03729 -2.48983,1.82061 -3.15522,1.15522 -1,-1 z m 42.99069,-0.91145 c -1.33099,-2.03135 -1.42245,-3.06922 -0.50292,-5.70698 2.52351,-7.23894 8.06736,-9.82644 12.19976,-5.69404 1.6845,1.68449 2.00772,2.92409 1.58474,6.07761 -0.72827,5.42971 -3.11291,7.80629 -7.83277,7.80629 -2.96625,0 -4.1862,-0.5559 -5.44881,-2.48288 z M 240.2983,154.5 c 0,-0.825 0.69274,-1.5 1.53943,-1.5 1.2719,0 1.31534,0.25406 0.25,1.46196 -1.63918,1.85851 -1.78943,1.86171 -1.78943,0.038 z m 5.25,-2.18933 c 0.9625,-0.25152 2.5375,-0.25152 3.5,0 0.9625,0.25153 0.175,0.45733 -1.75,0.45733 -1.925,0 -2.7125,-0.2058 -1.75,-0.45733 z m -83.75,37.0543 c 6.9168,-0.95309 7.62519,-1.39375 9.66938,-6.01497 1.56221,-3.53164 1.86728,-5.63326 1.33731,-9.21269 -1.38784,-9.3735 -3.91152,-13.15223 -17.06851,-25.55682 -6.84987,-6.45816 -12.90702,-12.58802 -13.46035,-13.62191 -0.96762,-1.80802 -0.84319,-1.8215 3.25806,-0.35298 2.34526,0.83977 11.01411,3.02812 19.26411,4.86301 17.04921,3.79194 21.93147,5.51168 28.98665,10.21034 5.75204,3.83079 9.91951,4.22757 13.09267,1.24653 l 2.20822,-2.07452 4.18301,2.13401 c 5.15058,2.62764 8.52945,2.36919 8.52945,-0.65241 0,-2.51058 -12.74721,-14.59882 -20.86151,-19.78306 -10.02621,-6.40578 -21.62739,-11.53146 -31.9592,-14.12037 -11.81423,-2.96036 -15.85838,-5.03092 -18.58571,-9.51564 -1.86222,-3.06218 -1.85881,-3.18531 0.24833,-8.970936 1.53621,-4.218004 2.70142,-5.947114 4.14728,-6.154347 1.40821,-0.201837 2.11173,-1.187253 2.34757,-3.288207 0.18522,-1.65 0.97272,-3.359861 1.75,-3.79969 0.79312,-0.44879 1.41324,-2.324529 1.41324,-4.274751 0,-2.843078 0.48416,-3.65914 2.66226,-4.48725 2.52391,-0.959588 10.68674,-0.375847 12.83774,0.918053 0.55,0.330843 3.59864,0.715639 6.77476,0.855102 4.80909,0.211167 6.06325,-0.09322 7.5,-1.820244 0.94888,-1.140596 2.74927,-2.475975 4.00087,-2.967508 1.25159,-0.491533 2.56795,-1.68795 2.92524,-2.658704 0.35729,-0.970754 1.33297,-2.831622 2.16817,-4.135262 1.44838,-2.260706 1.71596,-9.276071 0.51032,-13.379746 -0.34082,-1.160084 0.0341,-1.75 1.11227,-1.75 0.89452,0 1.3426,-0.459212 0.99572,-1.020471 -0.34688,-0.561259 0.52657,-2.395785 1.94098,-4.076725 3.46008,-4.112063 3.5511,-12.906463 0.21747,-21.010347 -2.45708,-5.973029 -6.30203,-11.987233 -7.45083,-11.654453 -0.38223,0.110724 -3.84102,-1.36003 -7.6862,-3.2683437 -6.58147,-3.2663024 -7.52788,-3.4588842 -16.14751,-3.2858009 -5.03596,0.1011226 -10.89683,0.6525375 -13.02415,1.2253664 -5.64833,1.5209381 -12.91176,6.4627482 -16.07585,10.9375112 -2.22114,3.141218 -5.87355,5.543083 -18.67237,12.279166 -8.75111,4.605753 -20.50507,11.099763 -26.119918,14.431134 -33.51458,19.884678 -51.16661,39.673762 -58.61408,65.710213 -2.1158,7.3969 -2.35489,10.23794 -2.35489,27.98299 v 19.75024 l -3.28212,-2.4e-4 C 23.150372,158.99941 16.121672,148.6053 15.919972,131.5 c -0.11189,-9.48925 0.11218,-10.3814 8.16251,-32.5 5.33449,-14.656696 7.44952,-26.510718 7.04773,-39.5 -0.29837,-9.645975 -0.6878,-11.708808 -3.1637,-16.758307 -3.17106,-6.467277 -7.13385,-9.945537 -13.4613,-11.815407 -3.68668,-1.089476 -4.5111304,-1.050641 -5.8367004,0.274928 -1.39147,1.391479 -1.09757,2.002541 2.9821004,6.200219 5.73667,5.9026 8.7529,13.58424 9.4168,23.982411 0.64415,10.088944 -0.84165,18.284687 -6.87519,37.923858 -6.6208604,21.550948 -8.2253504,30.023558 -7.6827104,40.569078 0.56106,10.9033 3.27334,17.43201 9.7642704,23.50351 6.84624,6.40386 14.90939,8.17684 23.40916,5.14737 3.8452,-1.3705 3.91736,-1.34985 7.10965,2.03497 5.0411,5.34511 13.62467,8.80833 22.00571,8.87864 4.79973,0.0403 8.06985,-0.49134 10.40364,-1.69127 1.872,-0.9625 3.5595,-1.75 3.75,-1.75 0.1905,0 0.34636,2.16399 0.34636,4.80887 0,8.4778 -0.1851,8.40765 22.572398,8.55403 13.79271,0.0887 20.69725,-0.2445 22.4276,-1.08238 2.00143,-0.96914 -1.62708,-1.08765 -18.1946,-0.59423 -18.590008,0.55365 -20.963428,0.44018 -23.338128,-1.11578 -3.40575,-2.23153 -3.05082,-3.78721 4.13054,-18.10407 3.13676,-6.25349 5.76832,-12.96854 6.07429,-15.5 0.51405,-4.25292 0.46436,-4.36457 -1.0394,-2.33555 -2.41798,3.26259 -6.51432,15.2419 -5.34524,15.6316 1.30478,0.43492 -3.19281,3.94036 -10.78746,8.40777 -5.5561,3.26828 -6.43229,3.48543 -11.84313,2.93516 -9.68166,-0.98459 -22.65687,-8.25163 -22.65687,-12.68945 0,-1.05378 -0.61386,-1.91597 -1.36414,-1.91597 -1.93881,0 -4.57712,-7.56512 -5.2861,-15.15744 -0.79448,-8.50784 1.18168,-25.00193 4.27394,-35.67266 9.86042,-34.026257 38.69559,-60.947991 85.376298,-79.710933 9.49575,-3.816742 10.88257,-4.711917 14.5,-9.359579 4.43567,-5.698938 11.91227,-11.420286 17.20774,-13.1679482 2.11473,-0.6979257 5.61487,-0.8716954 9.01107,-0.4473685 3.88037,0.4848202 5.77517,0.3346929 6.29003,-0.498367 0.54878,-0.8879502 1.26288,-0.9106499 2.79824,-0.08895 C 179.23917,9.5035397 181.18185,10 182.42245,10 c 1.24059,0 5.34696,1.867811 9.12525,4.150691 5.6094,3.389248 7.33785,5.07468 9.42194,9.187429 5.91142,11.66563 3.05198,26.613165 -4.62496,24.176602 -1.03293,-0.327842 -2.16749,-0.127772 -2.52124,0.444601 C 193.46969,48.531695 193.65682,49 194.23928,49 c 0.58246,0 1.05902,0.6375 1.05902,1.416667 0,0.779166 0.42239,1.566666 0.93864,1.75 C 196.75319,52.35 197.43039,54.975 197.74182,58 c 0.31144,3.025 0.30155,4.9375 -0.022,4.25 -1.24629,-2.648448 -2.42155,-1.055879 -2.42155,3.281385 0,5.060963 -1.84659,6.670028 -5.22984,4.557148 -2.41524,-1.508337 -3.50379,-0.677427 -1.80079,1.374566 C 190.14927,73.730285 188.76284,76 185.49635,76 c -1.57559,0 -3.18033,-0.315612 -3.56608,-0.70136 -0.92397,-0.92397 -7.51224,-1.622995 -15.88197,-1.685101 -4.79639,-0.03559 -6.75,-0.421049 -6.75,-1.331813 C 159.2983,71.576777 158.57221,71 157.68476,71 c -1.34279,0 -1.50165,0.746162 -0.94672,4.446717 0.55519,3.702268 0.32307,4.790469 -1.38646,6.5 -1.1293,1.129306 -2.05328,2.877242 -2.05328,3.884303 0,1.007061 -1.03658,2.385781 -2.30351,3.063822 -3.75077,2.007349 -12.64944,31.010958 -12.68171,41.333708 l -0.0148,4.72856 15.67017,15.34824 15.67018,15.34824 0.44897,8.55406 c 0.40499,7.71593 0.24134,8.76169 -1.67017,10.6732 -1.64973,1.64973 -3.34847,2.11915 -7.66881,2.11915 -6.77961,0 -10.75751,-1.91315 -12.44409,-5.98491 -1.68408,-4.06572 -0.71064,-4.81039 2.32282,-1.77693 2.10879,2.10879 2.76041,2.28432 4.6754,1.25945 2.10118,-1.12452 1.81492,-1.41715 -5.13968,-5.25425 -9.21858,-5.08622 -19.34775,-12.2098 -29.50387,-20.7493 -4.32351,-3.63531 -9.21092,-7.19654 -10.86092,-7.91384 -3.99269,-1.73574 -6.13219,-4.28629 -7.97367,-9.50559 -2.003948,-5.67981 -1.925688,-8.60076 0.41251,-15.39686 1.20644,-3.50659 1.56585,-5.86585 0.95144,-6.24558 -0.63558,-0.39281 -0.59551,-1.08244 0.11246,-1.93549 0.60492,-0.72888 1.19622,-2.83168 1.31401,-4.67289 0.11779,-1.84121 1.38222,-5.36729 2.80984,-7.83573 1.42763,-2.468445 4.05215,-7.569554 5.83227,-11.335799 1.78012,-3.766245 4.9926,-8.603745 7.13886,-10.75 4.31194,-4.311945 4.06217,-4.906885 -0.8123,-1.934783 C 115.87587,79.228281 112.79007,83.8056 108.77541,93 c -1.56099,3.575 -4.11352,8.44482 -5.67227,10.82181 -1.55876,2.377 -2.55844,4.76786 -2.22151,5.31302 0.92437,1.49567 -2.346478,4.68902 -9.727708,9.49722 -6.87185,4.47637 -11.85562,9.48652 -11.85562,11.91836 0,0.76833 1.93585,-0.53889 4.30189,-2.90493 2.36604,-2.36604 7.15401,-6.23873 10.63994,-8.60598 l 6.338048,-4.30409 -0.710168,5.3823 c -1.82777,13.85238 -1.82902,13.7981 0.430228,18.64945 3,6.44197 4.2368,7.68643 13.78031,13.86565 4.55414,2.9487 8.53615,6.02814 8.84891,6.84319 0.31277,0.81505 -0.37272,4.2695 -1.5233,7.67656 -2.13306,6.31633 -2.07102,8.5351 0.15447,5.52437 1.14841,-1.55361 1.88708,-1.56359 10.03354,-0.13557 12.08546,2.11849 13.12298,2.6245 14.5841,7.11279 0.68859,2.11522 1.48524,4.40835 1.77034,5.09585 0.38801,0.93568 -1.38852,1.25 -7.06498,1.25 -4.17083,0 -7.58333,0.40656 -7.58333,0.90347 0,0.49691 4.1625,1.1466 9.25,1.44375 5.0875,0.29716 10.825,0.74073 12.75,0.98571 1.925,0.24498 4.85,0.2594 6.5,0.032 z M 131.2983,170.5 c -7.67169,-1.10149 -8.07427,-1.33726 -7.37287,-4.31802 0.3471,-1.47509 1.01399,-3.10048 1.48197,-3.61198 0.85683,-0.93648 10.55174,5.11149 13.08316,8.16165 1.10836,1.33551 1.00883,1.47563 -0.7001,0.98565 -1.09569,-0.31416 -4.01716,-0.86194 -6.49216,-1.2173 z M 25.020972,166.93987 c -4.74836,-1.31863 -10.24834,-6.08979 -12.81132,-11.11364 C 9.4148416,150.34794 8.2721516,139.42635 9.3767316,128.74977 10.612392,116.80632 12.464842,109.14293 18.018442,93 c 4.25293,-12.362217 4.6813,-14.483873 5.08265,-25.173828 0.56081,-14.937404 -1.68217,-23.512727 -7.84444,-29.990613 -5.2830604,-5.55365 -3.82388,-7.276768 2.73056,-3.224469 2.89447,1.789511 5.9395,4.852454 7.77406,7.819788 2.77352,4.486063 3.04543,5.742637 3.38416,15.638893 0.45087,13.172522 -1.06619,21.292673 -7.95014,42.553679 -8.11377,25.05931 -9.36379,34.38116 -5.86449,43.73386 4.43222,11.84617 12.16273,18.19017 21.29006,17.47158 3.59449,-0.28299 4.21886,-0.0392 4.47423,1.74742 0.55584,3.88856 -7.84981,5.64747 -16.07412,3.36356 z M 166.7983,137.51174 c -9.35,-2.49693 -18.93795,-5.25548 -21.30655,-6.13011 -4.9403,-1.82426 -4.93242,-1.63287 -0.63013,-15.30823 1.28503,-4.08463 2.10742,-7.79713 1.82754,-8.25 -0.27989,-0.45287 -0.0627,-0.8234 0.48274,-0.8234 0.54539,0 1.27681,0.89853 1.62536,1.99673 0.95384,3.00529 7.99366,6.61314 17.50104,8.96915 9.74183,2.4141 14,3.94715 14,5.04034 0,0.41996 2.3625,1.53058 5.25,2.46804 7.60923,2.47042 15.59212,6.94135 21.99768,12.32014 6.12023,5.1392 11.30514,10.98611 10.4768,11.81445 -0.28841,0.28842 -3.69319,-1.13559 -7.56617,-3.16445 -5.89545,-3.08833 -7.64086,-3.57645 -10.72183,-2.99846 l -3.68006,0.69038 2.62179,2.73656 c 1.44199,1.50511 2.62179,2.98631 2.62179,3.29156 0,0.30525 -3.9375,-1.39526 -8.75,-3.77891 -5.71801,-2.83216 -14.64072,-5.90704 -25.75,-8.87379 z m 37.04271,10.55736 c -0.73954,-1.1966 1.14162,-2.38223 2.4736,-1.55902 1.11836,0.69118 0.38417,2.48992 -1.01631,2.48992 -0.48508,0 -1.14086,-0.41891 -1.45729,-0.9309 z M 162.88719,44.923275 c -1.42389,-1.692199 -2.58889,-4.025123 -2.58889,-5.184276 0,-3.478432 3.99309,-10.633298 7.35237,-13.174066 6.16811,-4.665205 11.13057,-3.526855 12.86305,2.950682 1.34868,5.042555 2.78458,4.964403 2.78458,-0.151555 0,-4.920692 -4.86405,-9.856868 -8.77517,-8.905283 -11.96865,2.912008 -20.92576,19.69831 -13.58997,25.468643 3.88206,3.05363 4.91973,2.520388 1.95403,-1.004145 z"
     id="path2384"
     inkscape:connector-curvature="0" />
</svg>
